<svg aria-hidden="true" style="position: absolute; width: 0; height: 0; overflow: hidden;" version="1.1" xmlns="http://www.w3.org/2000/svg" xmlns:xlink="http://www.w3.org/1999/xlink">
<defs>
<symbol id="icon-email" viewBox="0 0 32 32">
<path fill="#f3f3f3" style="fill: var(--color1, #f3f3f3)" d="M28.445 5.333h-24.889c-0.471 0-0.924 0.187-1.257 0.521s-0.521 0.786-0.521 1.257v17.778c0 0.471 0.187 0.924 0.521 1.257s0.786 0.521 1.257 0.521h24.889c0.471 0 0.924-0.187 1.257-0.521s0.521-0.786 0.521-1.257v-17.778c0-0.471-0.187-0.924-0.521-1.257s-0.786-0.521-1.257-0.521zM27.076 24.889h-22.044l6.222-6.436-1.28-1.236-6.418 6.64v-15.396l11.049 10.996c0.333 0.331 0.784 0.517 1.253 0.517s0.92-0.186 1.253-0.517l11.333-11.271v15.556l-6.542-6.542-1.253 1.253 6.427 6.436zM4.72 7.111h22.284l-11.147 11.085-11.138-11.085z"></path>
</symbol>
<symbol id="icon-Frame" viewBox="0 0 24 32">
<path fill="#bc1a1a" style="fill: var(--color2, #bc1a1a)" opacity="0.8" d="M13.865 13.809c0 0.123-0.099 0.222-0.222 0.222s-0.222-0.099-0.222-0.222c0-0.123 0.099-0.222 0.222-0.222s0.222 0.099 0.222 0.222z"></path>
<path fill="#bc1a1a" style="fill: var(--color2, #bc1a1a)" opacity="0.8" d="M14.641 15.861c0 0.123-0.099 0.222-0.222 0.222s-0.222-0.099-0.222-0.222c0-0.123 0.099-0.222 0.222-0.222s0.222 0.099 0.222 0.222z"></path>
<path fill="#bc1a1a" style="fill: var(--color2, #bc1a1a)" opacity="0.8" d="M13.033 17.359c0 0.123-0.099 0.222-0.222 0.222s-0.222-0.099-0.222-0.222c0-0.123 0.099-0.222 0.222-0.222s0.222 0.099 0.222 0.222z"></path>
<path fill="#bc1a1a" style="fill: var(--color2, #bc1a1a)" opacity="0.8" d="M14.031 25.789c0 0.123-0.099 0.222-0.222 0.222s-0.222-0.099-0.222-0.222c0-0.123 0.099-0.222 0.222-0.222s0.222 0.099 0.222 0.222z"></path>
<path fill="#bc1a1a" style="fill: var(--color2, #bc1a1a)" opacity="0.8" d="M0.998 10.26c0 0.092-0.075 0.166-0.166 0.166s-0.166-0.075-0.166-0.166c0-0.092 0.075-0.166 0.166-0.166s0.166 0.075 0.166 0.166z"></path>
<path fill="#bc1a1a" style="fill: var(--color2, #bc1a1a)" opacity="0.8" d="M1.165 31.723c0 0.092-0.075 0.166-0.166 0.166s-0.166-0.075-0.166-0.166c0-0.092 0.075-0.166 0.166-0.166s0.166 0.075 0.166 0.166z"></path>
<path fill="#bc1a1a" style="fill: var(--color2, #bc1a1a)" opacity="0.8" d="M1.719 1.22c0 0.092-0.075 0.166-0.166 0.166s-0.166-0.075-0.166-0.166c0-0.092 0.075-0.166 0.166-0.166s0.166 0.075 0.166 0.166z"></path>
<path fill="#f3f3f3" style="fill: var(--color1, #f3f3f3)" d="M1.82 0.943v-0.621h0.066v0.621h-0.066zM2.209 0.943v-0.564h-0.218v-0.057h0.502v0.057h-0.218v0.564h-0.066zM2.467 0.943l0.284-0.621h0.065l0.284 0.621h-0.069l-0.261-0.583h0.027l-0.261 0.583h-0.068zM2.579 0.777l0.020-0.053h0.361l0.020 0.053h-0.4zM3.203 0.943v-0.621h0.066v0.564h0.348v0.057h-0.413zM3.807 0.943v-0.231l0.015 0.041-0.264-0.431h0.070l0.232 0.379h-0.037l0.232-0.379h0.066l-0.264 0.431 0.015-0.041v0.231h-0.065zM4.575 0.943v-0.564h-0.218v-0.057h0.502v0.057h-0.218v0.564h-0.066zM5.227 0.948c-0.047 0-0.090-0.008-0.13-0.023s-0.074-0.038-0.104-0.067c-0.029-0.029-0.052-0.062-0.068-0.1s-0.024-0.080-0.024-0.126 0.008-0.087 0.024-0.125c0.017-0.038 0.039-0.072 0.068-0.1s0.064-0.051 0.104-0.067c0.040-0.016 0.083-0.024 0.13-0.024s0.090 0.008 0.13 0.024c0.040 0.015 0.074 0.037 0.103 0.066s0.052 0.062 0.068 0.1c0.017 0.038 0.025 0.080 0.025 0.126s-0.008 0.088-0.025 0.126c-0.016 0.038-0.039 0.072-0.068 0.1s-0.063 0.051-0.103 0.067c-0.040 0.015-0.083 0.023-0.13 0.023zM5.227 0.89c0.037 0 0.072-0.006 0.103-0.019s0.059-0.031 0.083-0.054c0.024-0.024 0.042-0.051 0.055-0.082s0.020-0.066 0.020-0.103-0.006-0.071-0.020-0.102c-0.013-0.031-0.031-0.059-0.055-0.082s-0.051-0.042-0.083-0.054c-0.031-0.013-0.066-0.020-0.103-0.020s-0.072 0.007-0.104 0.020c-0.032 0.012-0.060 0.030-0.083 0.054s-0.041 0.050-0.055 0.082c-0.013 0.031-0.020 0.065-0.020 0.102s0.006 0.071 0.020 0.102c0.014 0.031 0.032 0.059 0.055 0.083s0.051 0.041 0.083 0.054c0.032 0.012 0.067 0.019 0.104 0.019zM5.7 0.943v-0.621h0.054l0.284 0.485h-0.028l0.281-0.484h0.054v0.621h-0.063v-0.523h0.015l-0.259 0.444h-0.031l-0.261-0.444h0.017v0.523h-0.063zM6.448 0.943l0.284-0.621h0.065l0.284 0.621h-0.069l-0.261-0.583h0.027l-0.261 0.583h-0.068zM6.56 0.777l0.020-0.053h0.361l0.020 0.053h-0.4zM7.273 0.943v-0.564h-0.218v-0.057h0.502v0.057h-0.218v0.564h-0.066zM7.925 0.948c-0.047 0-0.090-0.008-0.13-0.023s-0.074-0.038-0.104-0.067c-0.029-0.029-0.052-0.062-0.068-0.1s-0.024-0.080-0.024-0.126 0.008-0.087 0.024-0.125c0.017-0.038 0.039-0.072 0.068-0.1s0.064-0.051 0.104-0.067c0.040-0.016 0.083-0.024 0.13-0.024s0.090 0.008 0.13 0.024c0.040 0.015 0.074 0.037 0.103 0.066s0.052 0.062 0.068 0.1c0.017 0.038 0.025 0.080 0.025 0.126s-0.008 0.088-0.025 0.126c-0.016 0.038-0.039 0.072-0.068 0.1s-0.063 0.051-0.103 0.067c-0.040 0.015-0.083 0.023-0.13 0.023zM7.925 0.89c0.037 0 0.072-0.006 0.103-0.019s0.059-0.031 0.083-0.054c0.024-0.024 0.042-0.051 0.055-0.082s0.020-0.066 0.020-0.103-0.007-0.071-0.020-0.102c-0.013-0.031-0.031-0.059-0.055-0.082s-0.051-0.042-0.083-0.054c-0.031-0.013-0.066-0.020-0.103-0.020s-0.072 0.007-0.104 0.020c-0.032 0.012-0.060 0.030-0.083 0.054s-0.041 0.050-0.055 0.082c-0.013 0.031-0.020 0.065-0.020 0.102s0.006 0.071 0.020 0.102c0.014 0.031 0.032 0.059 0.055 0.083s0.051 0.041 0.083 0.054c0.032 0.012 0.067 0.019 0.104 0.019zM8.456 0.599h0.328v0.056h-0.328v-0.056zM8.463 0.886h0.374v0.057h-0.439v-0.621h0.426v0.057h-0.36v0.508zM9.162 0.948c-0.046 0-0.091-0.007-0.133-0.022s-0.075-0.035-0.098-0.059l0.026-0.051c0.022 0.021 0.051 0.039 0.088 0.054s0.076 0.021 0.117 0.021c0.039 0 0.071-0.005 0.095-0.014s0.043-0.023 0.054-0.040c0.012-0.017 0.018-0.035 0.018-0.055 0-0.024-0.007-0.044-0.021-0.059s-0.032-0.026-0.054-0.035c-0.022-0.009-0.047-0.017-0.075-0.023s-0.054-0.013-0.082-0.020c-0.027-0.008-0.052-0.018-0.075-0.030s-0.041-0.029-0.055-0.049c-0.014-0.021-0.020-0.048-0.020-0.081 0-0.031 0.008-0.059 0.024-0.084s0.042-0.047 0.075-0.062c0.034-0.016 0.077-0.024 0.13-0.024 0.035 0 0.069 0.005 0.104 0.015s0.064 0.023 0.089 0.040l-0.022 0.052c-0.027-0.018-0.055-0.031-0.085-0.039s-0.058-0.012-0.086-0.012c-0.037 0-0.068 0.005-0.092 0.015s-0.042 0.024-0.054 0.041c-0.011 0.017-0.017 0.035-0.017 0.057 0 0.024 0.007 0.044 0.020 0.059s0.033 0.026 0.055 0.035c0.023 0.008 0.048 0.016 0.075 0.022s0.054 0.014 0.081 0.021c0.027 0.008 0.052 0.018 0.075 0.030s0.041 0.028 0.055 0.048c0.014 0.020 0.021 0.046 0.021 0.079 0 0.030-0.008 0.058-0.025 0.084s-0.042 0.046-0.076 0.062c-0.034 0.015-0.077 0.023-0.13 0.023z"></path>
<path fill="#f3f3f3" style="fill: var(--color1, #f3f3f3)" d="M1.158 9.662h0.328v0.057h-0.328v-0.057zM1.165 9.983h-0.066v-0.621h0.426v0.057h-0.36v0.564zM1.661 9.983v-0.621h0.232c0.053 0 0.098 0.009 0.136 0.026s0.067 0.041 0.087 0.073c0.021 0.031 0.031 0.069 0.031 0.114 0 0.044-0.010 0.082-0.031 0.114s-0.049 0.056-0.087 0.073c-0.038 0.017-0.083 0.025-0.136 0.025h-0.196l0.029-0.030v0.227h-0.066zM2.085 9.983l-0.16-0.225h0.071l0.161 0.225h-0.072zM1.727 9.761l-0.029-0.031h0.194c0.062 0 0.109-0.014 0.141-0.041s0.049-0.065 0.049-0.114c0-0.050-0.016-0.088-0.049-0.115s-0.079-0.041-0.141-0.041h-0.194l0.029-0.031v0.374zM2.361 9.639h0.328v0.056h-0.328v-0.056zM2.368 9.926h0.374v0.057h-0.439v-0.621h0.426v0.057h-0.36v0.508zM3.067 9.988c-0.046 0-0.091-0.007-0.133-0.022s-0.075-0.035-0.098-0.059l0.026-0.051c0.022 0.021 0.051 0.039 0.088 0.054s0.076 0.021 0.117 0.021c0.039 0 0.071-0.005 0.095-0.014s0.043-0.023 0.054-0.040c0.012-0.017 0.018-0.035 0.018-0.055 0-0.024-0.007-0.044-0.021-0.059s-0.032-0.026-0.054-0.035c-0.022-0.009-0.047-0.017-0.075-0.023s-0.054-0.013-0.082-0.020c-0.027-0.008-0.052-0.018-0.075-0.030s-0.041-0.029-0.055-0.049c-0.014-0.021-0.020-0.048-0.020-0.081 0-0.031 0.008-0.059 0.024-0.084s0.042-0.047 0.075-0.062c0.034-0.016 0.077-0.024 0.13-0.024 0.035 0 0.070 0.005 0.104 0.015s0.064 0.023 0.089 0.040l-0.022 0.052c-0.027-0.018-0.055-0.031-0.085-0.039s-0.058-0.012-0.086-0.012c-0.037 0-0.068 0.005-0.092 0.015s-0.042 0.024-0.054 0.041c-0.011 0.017-0.017 0.036-0.017 0.057 0 0.024 0.007 0.044 0.020 0.059s0.033 0.026 0.055 0.035c0.023 0.008 0.048 0.016 0.075 0.022s0.054 0.014 0.081 0.021c0.027 0.008 0.052 0.018 0.075 0.030s0.041 0.028 0.055 0.048c0.014 0.020 0.021 0.046 0.021 0.079 0 0.030-0.008 0.058-0.025 0.084s-0.042 0.046-0.076 0.062c-0.034 0.015-0.077 0.023-0.13 0.023zM3.896 9.362h0.065v0.621h-0.065v-0.621zM3.507 9.983h-0.066v-0.621h0.066v0.621zM3.902 9.696h-0.402v-0.058h0.402v0.058zM4.668 9.988c-0.047 0-0.091-0.008-0.131-0.023s-0.074-0.038-0.104-0.067c-0.029-0.028-0.052-0.062-0.068-0.1s-0.024-0.080-0.024-0.126 0.008-0.088 0.024-0.126c0.017-0.038 0.040-0.072 0.069-0.1s0.064-0.050 0.104-0.066c0.040-0.016 0.084-0.024 0.131-0.024s0.090 0.007 0.13 0.022c0.040 0.015 0.073 0.037 0.101 0.067l-0.041 0.042c-0.026-0.026-0.055-0.045-0.086-0.056s-0.065-0.017-0.101-0.017c-0.038 0-0.074 0.007-0.106 0.020s-0.060 0.030-0.084 0.054c-0.024 0.023-0.042 0.050-0.056 0.082s-0.020 0.065-0.020 0.102c0 0.037 0.006 0.071 0.020 0.102s0.032 0.059 0.056 0.083c0.024 0.023 0.052 0.041 0.084 0.054s0.068 0.019 0.106 0.019c0.035 0 0.069-0.005 0.1-0.016s0.061-0.029 0.088-0.054l0.037 0.050c-0.030 0.026-0.064 0.046-0.104 0.059s-0.081 0.020-0.124 0.020zM4.833 9.901v-0.229h0.063v0.237l-0.063-0.008zM4.983 9.983l0.284-0.621h0.065l0.284 0.621h-0.069l-0.261-0.583h0.027l-0.261 0.583h-0.068zM5.095 9.817l0.020-0.053h0.361l0.020 0.053h-0.4zM5.718 9.983v-0.621h0.232c0.053 0 0.098 0.009 0.136 0.026s0.067 0.041 0.087 0.073c0.021 0.031 0.031 0.069 0.031 0.114 0 0.044-0.010 0.082-0.031 0.114s-0.049 0.056-0.087 0.073c-0.038 0.017-0.083 0.025-0.136 0.025h-0.196l0.029-0.030v0.227h-0.066zM6.142 9.983l-0.16-0.225h0.071l0.161 0.225h-0.072zM5.784 9.761l-0.029-0.031h0.194c0.062 0 0.109-0.014 0.141-0.041s0.049-0.065 0.049-0.114c0-0.050-0.016-0.088-0.049-0.115s-0.079-0.041-0.141-0.041h-0.194l0.029-0.031v0.374zM6.359 9.983v-0.621h0.066v0.564h0.348v0.057h-0.413zM6.882 9.983v-0.621h0.066v0.621h-0.066zM7.419 9.988c-0.047 0-0.090-0.008-0.13-0.023s-0.074-0.038-0.103-0.067c-0.029-0.028-0.052-0.062-0.068-0.1s-0.024-0.080-0.024-0.126 0.008-0.088 0.024-0.126c0.017-0.038 0.039-0.072 0.068-0.1s0.064-0.050 0.104-0.066c0.040-0.016 0.083-0.024 0.13-0.024 0.045 0 0.087 0.008 0.127 0.023s0.073 0.037 0.1 0.067l-0.042 0.042c-0.025-0.026-0.054-0.045-0.084-0.056s-0.064-0.018-0.099-0.018c-0.037 0-0.072 0.007-0.104 0.020s-0.060 0.030-0.083 0.054c-0.024 0.023-0.042 0.050-0.056 0.082s-0.020 0.065-0.020 0.102 0.006 0.072 0.020 0.103c0.014 0.031 0.032 0.058 0.056 0.082s0.051 0.041 0.083 0.054c0.032 0.012 0.067 0.019 0.104 0.019 0.035 0 0.069-0.006 0.099-0.018s0.059-0.031 0.084-0.057l0.042 0.042c-0.027 0.030-0.061 0.053-0.1 0.068s-0.082 0.023-0.128 0.023z"></path>
<path fill="#f3f3f3" style="fill: var(--color1, #f3f3f3)" d="M0.242 21.13l-0.209-0.621h0.067l0.196 0.585h-0.034l0.202-0.585h0.060l0.2 0.585h-0.032l0.198-0.585h0.063l-0.209 0.621h-0.069l-0.191-0.555h0.018l-0.192 0.555h-0.068zM1.529 20.509h0.065v0.621h-0.065v-0.621zM1.14 21.13h-0.066v-0.621h0.066v0.621zM1.535 20.843h-0.402v-0.058h0.402v0.058zM1.796 21.13v-0.621h0.066v0.621h-0.066zM2.185 21.13v-0.564h-0.218v-0.057h0.502v0.057h-0.218v0.564h-0.066zM2.632 20.787h0.328v0.056h-0.328v-0.056zM2.639 21.073h0.374v0.057h-0.439v-0.621h0.426v0.057h-0.36v0.508zM3.54 21.13l-0.209-0.621h0.067l0.196 0.585h-0.034l0.202-0.585h0.060l0.2 0.585h-0.032l0.198-0.585h0.063l-0.209 0.621h-0.069l-0.191-0.555h0.018l-0.192 0.555h-0.068zM4.372 21.13v-0.621h0.066v0.621h-0.066zM4.64 21.13v-0.621h0.054l0.429 0.54h-0.028v-0.54h0.065v0.621h-0.054l-0.428-0.54h0.028v0.54h-0.066zM5.421 20.787h0.328v0.056h-0.328v-0.056zM5.428 21.073h0.374v0.057h-0.439v-0.621h0.426v0.057h-0.36v0.508z"></path>
<path fill="#f3f3f3" style="fill: var(--color1, #f3f3f3)" d="M1.324 31.070h0.328v0.057h-0.328v-0.057zM1.331 31.39h-0.066v-0.621h0.426v0.057h-0.36v0.564zM1.827 31.39v-0.621h0.233c0.053 0 0.098 0.009 0.136 0.026s0.067 0.041 0.087 0.073c0.021 0.031 0.031 0.070 0.031 0.114 0 0.044-0.010 0.082-0.031 0.114s-0.049 0.056-0.087 0.073c-0.038 0.017-0.083 0.025-0.136 0.025h-0.196l0.029-0.030v0.227h-0.066zM2.251 31.39l-0.16-0.225h0.071l0.161 0.225h-0.072zM1.893 31.168l-0.029-0.031h0.194c0.062 0 0.109-0.014 0.141-0.041s0.049-0.065 0.049-0.114c0-0.050-0.016-0.088-0.049-0.115s-0.079-0.041-0.141-0.041h-0.194l0.029-0.031v0.374zM2.527 31.047h0.328v0.056h-0.328v-0.056zM2.534 31.333h0.374v0.057h-0.439v-0.621h0.426v0.057h-0.36v0.508zM3.233 31.395c-0.046 0-0.091-0.007-0.133-0.022s-0.075-0.035-0.098-0.059l0.026-0.051c0.022 0.021 0.051 0.039 0.088 0.054s0.076 0.021 0.117 0.021c0.039 0 0.071-0.005 0.095-0.014s0.043-0.023 0.054-0.040c0.012-0.017 0.018-0.035 0.018-0.055 0-0.024-0.007-0.044-0.021-0.059s-0.032-0.026-0.054-0.035c-0.022-0.009-0.047-0.017-0.075-0.023s-0.054-0.013-0.082-0.020c-0.027-0.008-0.052-0.018-0.075-0.030s-0.041-0.029-0.055-0.049c-0.014-0.021-0.020-0.048-0.020-0.081 0-0.031 0.008-0.059 0.024-0.084s0.042-0.047 0.075-0.062c0.034-0.016 0.077-0.024 0.13-0.024 0.035 0 0.070 0.005 0.104 0.015s0.064 0.023 0.089 0.040l-0.022 0.052c-0.027-0.018-0.055-0.031-0.085-0.039s-0.058-0.012-0.086-0.012c-0.037 0-0.068 0.005-0.092 0.015s-0.042 0.024-0.054 0.041c-0.011 0.017-0.017 0.035-0.017 0.057 0 0.024 0.007 0.044 0.020 0.059s0.033 0.026 0.055 0.035c0.023 0.008 0.048 0.016 0.075 0.022s0.054 0.014 0.081 0.021c0.027 0.008 0.052 0.018 0.075 0.030s0.041 0.028 0.055 0.048c0.014 0.020 0.021 0.046 0.021 0.079 0 0.030-0.008 0.058-0.025 0.084s-0.042 0.046-0.076 0.062c-0.034 0.015-0.077 0.023-0.13 0.023zM4.062 30.769h0.065v0.621h-0.065v-0.621zM3.674 31.39h-0.066v-0.621h0.066v0.621zM4.069 31.103h-0.402v-0.058h0.402v0.058zM4.562 31.39v-0.621h0.268c0.069 0 0.123 0.014 0.161 0.042s0.058 0.067 0.058 0.118c0 0.034-0.008 0.062-0.024 0.085s-0.037 0.041-0.064 0.052c-0.027 0.012-0.056 0.018-0.088 0.018l0.015-0.021c0.040 0 0.074 0.006 0.102 0.019s0.051 0.030 0.067 0.054c0.016 0.024 0.024 0.053 0.024 0.089 0 0.053-0.020 0.093-0.059 0.122s-0.097 0.043-0.175 0.043h-0.286zM4.628 31.336h0.219c0.054 0 0.096-0.009 0.125-0.027s0.043-0.049 0.043-0.090c0-0.040-0.014-0.070-0.043-0.088s-0.071-0.028-0.125-0.028h-0.226v-0.054h0.205c0.050 0 0.088-0.009 0.115-0.028s0.042-0.047 0.042-0.084c0-0.038-0.014-0.066-0.042-0.084s-0.066-0.028-0.115-0.028h-0.198v0.513zM5.132 31.39l0.284-0.621h0.065l0.284 0.621h-0.069l-0.261-0.583h0.027l-0.261 0.583h-0.068zM5.244 31.224l0.020-0.053h0.361l0.020 0.053h-0.4zM6.038 31.395c-0.046 0-0.090-0.007-0.133-0.022s-0.075-0.035-0.098-0.059l0.026-0.051c0.022 0.021 0.051 0.039 0.088 0.054s0.076 0.021 0.117 0.021c0.039 0 0.071-0.005 0.095-0.014s0.043-0.023 0.054-0.040c0.012-0.017 0.018-0.035 0.018-0.055 0-0.024-0.007-0.044-0.021-0.059s-0.032-0.026-0.054-0.035c-0.023-0.009-0.047-0.017-0.075-0.023s-0.054-0.013-0.082-0.020c-0.027-0.008-0.052-0.018-0.075-0.030s-0.041-0.029-0.055-0.049c-0.014-0.021-0.020-0.048-0.020-0.081 0-0.031 0.008-0.059 0.024-0.084s0.042-0.047 0.075-0.062c0.034-0.016 0.077-0.024 0.13-0.024 0.035 0 0.069 0.005 0.104 0.015s0.064 0.023 0.089 0.040l-0.022 0.052c-0.027-0.018-0.055-0.031-0.085-0.039s-0.058-0.012-0.086-0.012c-0.037 0-0.068 0.005-0.092 0.015s-0.042 0.024-0.054 0.041c-0.011 0.017-0.017 0.035-0.017 0.057 0 0.024 0.007 0.044 0.020 0.059s0.032 0.026 0.055 0.035c0.023 0.008 0.048 0.016 0.075 0.022s0.054 0.014 0.081 0.021c0.027 0.008 0.052 0.018 0.075 0.030s0.041 0.028 0.055 0.048c0.014 0.020 0.021 0.046 0.021 0.079 0 0.030-0.008 0.058-0.025 0.084s-0.042 0.046-0.076 0.062c-0.034 0.015-0.077 0.023-0.13 0.023zM6.413 31.39v-0.621h0.066v0.621h-0.066zM6.681 31.39v-0.621h0.066v0.564h0.348v0.057h-0.413z"></path>
</symbol>
<symbol id="icon-instagram" viewBox="0 0 32 32">
<path d="M15.969 0.125c4.312 0 4.844 0.031 6.531 0.094 1.656 0.063 2.813 0.344 3.844 0.75 1.063 0.406 1.937 0.938 2.813 1.813s1.406 1.75 1.813 2.813c0.406 1.031 0.687 2.188 0.75 3.844 0.062 1.688 0.094 2.219 0.094 6.531s-0.031 4.844-0.094 6.531c-0.063 1.656-0.344 2.813-0.75 3.844-0.406 1.063-0.938 1.937-1.813 2.813s-1.75 1.406-2.813 1.813c-1.031 0.406-2.187 0.687-3.844 0.75-1.687 0.062-2.219 0.094-6.531 0.094s-4.844-0.031-6.531-0.094c-1.656-0.063-2.813-0.344-3.844-0.75-1.063-0.406-1.938-0.938-2.813-1.813s-1.406-1.75-1.813-2.813c-0.406-1.031-0.688-2.187-0.75-3.844-0.063-1.687-0.094-2.219-0.094-6.531s0.031-4.844 0.094-6.531c0.063-1.656 0.344-2.813 0.75-3.844 0.406-1.063 0.938-1.938 1.813-2.813s1.75-1.406 2.813-1.813c1.031-0.406 2.188-0.688 3.844-0.75 1.688-0.063 2.219-0.094 6.531-0.094zM15.969 2.188c-4.5 0-5.031 0.031-6.781 0.094-1.625 0.063-2.531 0.375-3.125 0.594-1.531 0.625-2.563 1.656-3.188 3.188-0.219 0.594-0.531 1.5-0.594 3.125-0.063 1.75-0.094 2.281-0.094 6.781s0.031 5.031 0.094 6.781c0.063 1.625 0.375 2.531 0.594 3.125 0.625 1.531 1.656 2.563 3.188 3.188 0.594 0.219 1.5 0.531 3.125 0.594 1.75 0.063 2.281 0.094 6.781 0.094s5.031-0.031 6.781-0.094c1.625-0.063 2.531-0.375 3.125-0.594 1.531-0.625 2.563-1.656 3.188-3.188 0.219-0.594 0.531-1.5 0.594-3.125 0.063-1.75 0.094-2.281 0.094-6.781s-0.031-5.031-0.094-6.781c-0.063-1.625-0.375-2.531-0.594-3.125-0.625-1.531-1.656-2.563-3.188-3.188-0.594-0.219-1.5-0.531-3.125-0.594-1.75-0.063-2.281-0.094-6.781-0.094zM15.969 22.313c3.5 0 6.344-2.844 6.344-6.344s-2.844-6.344-6.344-6.344c-3.5 0-6.344 2.844-6.344 6.344s2.844 6.344 6.344 6.344zM15.969 7.844c4.5 0 8.125 3.625 8.125 8.125s-3.625 8.125-8.125 8.125c-4.5 0-8.125-3.625-8.125-8.125s3.625-8.125 8.125-8.125zM26.344 7.531c0 1.063-0.875 1.875-1.937 1.875s-1.875-0.813-1.875-1.875c0-1.063 0.813-1.938 1.875-1.938s1.937 0.875 1.937 1.938z"></path>
</symbol>
<symbol id="icon-location" viewBox="0 0 32 32">
<path fill="#f3f3f3" style="fill: var(--color1, #f3f3f3)" d="M25 13c0-2.387-0.948-4.676-2.636-6.364s-3.977-2.636-6.364-2.636-4.676 0.948-6.364 2.636c-1.688 1.688-2.636 3.977-2.636 6.364 0 3.692 2.954 8.504 9 14.268 6.046-5.764 9-10.576 9-14.268zM16 30c-7.334-6.666-11-12.334-11-17 0-2.917 1.159-5.715 3.222-7.778s4.861-3.222 7.778-3.222c2.917 0 5.715 1.159 7.778 3.222s3.222 4.861 3.222 7.778c0 4.666-3.666 10.334-11 17z"></path>
<path fill="#f3f3f3" style="fill: var(--color1, #f3f3f3)" d="M16 16c0.796 0 1.559-0.316 2.121-0.879s0.879-1.326 0.879-2.121c0-0.796-0.316-1.559-0.879-2.121s-1.326-0.879-2.121-0.879-1.559 0.316-2.121 0.879c-0.563 0.563-0.879 1.326-0.879 2.121s0.316 1.559 0.879 2.121c0.563 0.563 1.326 0.879 2.121 0.879zM16 18c-1.326 0-2.598-0.527-3.536-1.464s-1.464-2.209-1.464-3.536c0-1.326 0.527-2.598 1.464-3.536s2.209-1.464 3.536-1.464c1.326 0 2.598 0.527 3.536 1.464s1.464 2.209 1.464 3.536c0 1.326-0.527 2.598-1.464 3.536s-2.209 1.464-3.536 1.464z"></path>
</symbol>
<symbol id="icon-logo" viewBox="0 0 32 32">
<path fill="#f3f3f3" style="fill: var(--color1, #f3f3f3)" d="M31.979 15.799c-0.647-12.049-6.457-13.811-11.14-13.811-1.183 0.001-2.294 0.113-3.233 0.201-0.008-0.548 0.014-1.135 0.1-1.783 0.002-0.009-0.002-0.017-0.003-0.026 0.001-0.005 0.003-0.009 0.003-0.014 0-0.202-0.354-0.366-0.793-0.366-0.437 0-0.791 0.164-0.791 0.366-0.12 0.654-0.283 1.298-0.489 1.926-6.18 0.040-14.32 1.090-15.563 13.098-0.901 8.715 7.043 16.61 15.98 16.61s16.399-7.443 15.929-16.201zM17.939 3.878c0.218-0.021 0.444-0.042 0.677-0.062-0.279 0.121-0.551 0.246-0.806 0.371-0.019-0.090-0.032-0.198-0.049-0.294l0.178-0.016zM14.974 4.014c-0.070 0.156-0.138 0.306-0.204 0.443-0.157-0.152-0.323-0.294-0.498-0.424 0.234-0.009 0.467-0.014 0.701-0.019zM27.012 25.329c-2.776 3.15-6.772 4.957-10.962 4.957-4.27 0-8.512-2.025-11.347-5.417-2.297-2.749-3.378-6.048-3.042-9.29 0.63-6.085 3.142-8.991 6.367-10.367 3.124-0.622 6.064 0.52 6.064 0.52s-6.682-1.777-9.302 7.422c3.298-5.508 8.972-3.887 10.465-5.917 0 3.925 2.662 2.021 4.008 3.789 1.731 2.273 2.365 6.346 4.356 7.149-1.962-4.512 1.25-4.336-3.262-10.391 2.377 1.582 3.61-0.019 6.855 1.407-2.777-4.863-7.22-3.457-7.22-3.457s1.808-1.765 3.725-1.716c3.238 0.81 6.217 3.537 6.666 11.883 0.182 3.409-1.014 6.758-3.37 9.431z"></path>
</symbol>
<symbol id="icon-tumblr" viewBox="0 0 32 32">
<path d="M16.501 1.992v6.996h7.010v2.999h-6.979l-0.010 8.704c0 1.618 0.084 2.657 0.255 3.117 0.267 0.727 1.237 1.657 3.037 1.657 1.397 0 3.281-0.42 4.693-1.477v4.666c-1.177 0.561-2.273 0.788-3.227 1.015-0.955 0.225-1.989 0.339-3.098 0.339-1.235 0-4.802-0.034-6.266-3.763-0.264-0.671-0.395-1.645-0.395-2.921v-11.332h-4.027l0.019-3.066c1.333 0 5.332-0.81 5.332-6.934l3.655-0zM16.501-0.008l-3.656-0c-1.104 0-2 0.895-2 2 0 4.578-2.551 4.934-3.332 4.934-1.101 0-1.995 0.889-2 1.99l-0.019 3.066c-0.003 0.532 0.207 1.043 0.582 1.421 0.186 0.187 0.407 0.335 0.65 0.436s0.504 0.153 0.768 0.153h2.027v9.332c0 1.543 0.175 2.739 0.534 3.653 0.901 2.295 3.043 5.032 8.127 5.032 1.259 0 2.456-0.132 3.558-0.393l0.221-0.052c0.933-0.219 2.126-0.493 3.407-1.104 0.341-0.162 0.629-0.418 0.831-0.738s0.309-0.69 0.309-1.068v-4.666c0-0.371-0.103-0.735-0.298-1.051s-0.474-0.571-0.806-0.737c-0.283-0.143-0.59-0.212-0.895-0.212-0.432 0-0.852 0.14-1.198 0.398-1.191 0.892-2.714 1.078-3.494 1.078-0.8 0-1.097-0.29-1.163-0.367-0.034-0.157-0.129-0.743-0.129-2.407l0.007-6.704h4.982c1.104 0 2-0.896 2-2v-2.999c0-1.104-0.896-2-2-2h-5.010v-4.996c0-1.105-0.896-2-2-2v0z"></path>
</symbol>
<symbol id="icon-twitter" viewBox="0 0 32 32">
<path d="M21.387 4.959c1.653 0 3.144 0.676 4.195 1.762 1.307-0.253 2.54-0.714 3.647-1.353-0.429 1.301-1.34 2.393-2.525 3.083 1.16-0.136 2.271-0.434 3.301-0.88-0.773 1.117-1.745 2.1-2.868 2.886 0.010 0.239 0.017 0.479 0.017 0.719 0 7.366-5.782 15.863-16.354 15.863-3.245 0-6.268-0.926-8.809-2.507 0.455 0.053 0.912 0.079 1.37 0.079 2.692 0 5.172-0.89 7.139-2.387-2.517-0.043-4.641-1.656-5.369-3.87 0.357 0.067 0.719 0.101 1.082 0.101 0.522 0 1.032-0.067 1.513-0.195-2.629-0.511-4.611-2.764-4.611-5.467v-0.071c0.776 0.418 1.661 0.669 2.604 0.698-1.543-1.001-2.558-2.705-2.558-4.64 0-1.022 0.284-1.981 0.779-2.801 2.834 3.371 7.069 5.591 11.847 5.824-0.099-0.407-0.149-0.837-0.149-1.27 0-3.079 2.573-5.575 5.749-5.575zM30.006 7.572v0zM21.387 2.959c-3.927 0-7.18 2.869-7.681 6.576-3.213-0.646-6.135-2.346-8.235-4.842-0.188-0.223-0.422-0.403-0.686-0.526s-0.553-0.187-0.844-0.187c-0.052 0-0.105 0.002-0.157 0.006-0.317 0.025-0.623 0.126-0.894 0.293s-0.497 0.397-0.662 0.669c-0.697 1.157-1.066 2.482-1.066 3.833 0 0.902 0.162 1.78 0.469 2.601-0.327 0.364-0.515 0.839-0.515 1.341v0.072c0 1.959 0.774 3.777 2.061 5.14-0.074 0.343-0.058 0.702 0.055 1.046 0.444 1.349 1.251 2.512 2.298 3.398-0.703 0.157-1.429 0.235-2.169 0.235-0.392 0-0.772-0.021-1.133-0.065-0.080-0.010-0.159-0.013-0.238-0.013-0.84 0-1.603 0.529-1.885 1.337-0.31 0.885 0.034 1.866 0.83 2.361 2.954 1.838 6.366 2.809 9.866 2.809 11.376 0 18.219-8.905 18.352-17.604 0.933-0.772 1.758-1.667 2.451-2.661 0.263-0.346 0.406-0.768 0.405-1.203 0-0.681-0.341-1.282-0.859-1.644 0.224-0.769-0.032-1.603-0.657-2.111-0.365-0.297-0.813-0.448-1.263-0.448-0.351-0-0.695 0.092-0.999 0.268-0.661 0.381-1.368 0.683-2.112 0.9-1.347-1.014-3.017-1.578-4.732-1.578z"></path>
</symbol>
<symbol id="icon-youtube" viewBox="0 0 32 32">
<path d="M29.398 5.928c-0.867-0.624-3.283-1.453-13.406-1.453-10.849 0-12.458 0.952-12.975 1.264-2.749 1.651-3.010 8.963-3.034 10.445 0.033 1.958 0.349 8.473 3.032 10.084 0.516 0.31 2.116 1.257 12.977 1.257 10.13 0 12.543-0.825 13.406-1.447 2.343-1.685 2.613-7.49 2.619-9.92-0.006-1.954-0.211-8.496-2.619-10.23v-0zM28.23 24.455c-0.349 0.251-2.35 1.069-12.239 1.069-9.56 0-11.566-0.742-11.945-0.971-0.965-0.579-1.984-3.653-2.063-8.376 0.079-4.713 1.111-8.153 2.066-8.726 0.38-0.229 2.393-0.978 11.943-0.978 9.881 0 11.887 0.824 12.239 1.076 0.857 0.617 1.773 3.865 1.787 8.613-0.013 4.823-0.936 7.679-1.787 8.291v0zM22.513 15.213l-8.998-5.521c-0.152-0.091-0.325-0.141-0.502-0.144s-0.352 0.042-0.506 0.129c-0.154 0.087-0.283 0.214-0.372 0.367s-0.137 0.327-0.137 0.504v11.045c0 0.265 0.106 0.519 0.293 0.707s0.442 0.293 0.707 0.293c0.182 0 0.361-0.050 0.517-0.143l8.998-5.524c0.3-0.181 0.483-0.506 0.483-0.856s-0.183-0.676-0.483-0.857h-0zM13.999 19.822v-7.503l6.063 3.751-6.063 3.752z"></path>
</symbol>
<symbol id="xclose" viewBox="0 0 32 32">
<path d="M16 12.648l11.733-11.733 3.352 3.352-11.733 11.733 11.733 11.733-3.352 3.352-11.733-11.733-11.733 11.733-3.352-3.352 11.733-11.733-11.733-11.733 3.352-3.352 11.733 11.733z"></path>
</symbol>
<symbol id="burger" viewBox="0 0 55 32">
<path fill="none" stroke="#f3f3f3" style="stroke: var(--color1, #f3f3f3)" stroke-linejoin="miter" stroke-linecap="butt" stroke-miterlimit="4" stroke-width="1.7778" d="M0 1.778h55.111"></path>
<path fill="none" stroke="#f3f3f3" style="stroke: var(--color1, #f3f3f3)" stroke-linejoin="miter" stroke-linecap="butt" stroke-miterlimit="4" stroke-width="1.7778" d="M0 16h55.111"></path>
<path fill="none" stroke="#f3f3f3" style="stroke: var(--color1, #f3f3f3)" stroke-linejoin="miter" stroke-linecap="butt" stroke-miterlimit="4" stroke-width="1.7778" d="M0 30.222h55.111"></path>
</symbol>
</svg>
