<svg aria-hidden="true" style="position: absolute; width: 0; height: 0; overflow: hidden;" version="1.1" xmlns="http://www.w3.org/2000/svg" xmlns:xlink="http://www.w3.org/1999/xlink">
<defs>
<symbol id="email" viewBox="0 0 32 32">
<path d="M28.445 5.333h-24.889c-0.471 0-0.924 0.187-1.257 0.521s-0.521 0.786-0.521 1.257v17.778c0 0.471 0.187 0.924 0.521 1.257s0.786 0.521 1.257 0.521h24.889c0.471 0 0.924-0.187 1.257-0.521s0.521-0.786 0.521-1.257v-17.778c0-0.471-0.187-0.924-0.521-1.257s-0.786-0.521-1.257-0.521zM27.076 24.889h-22.044l6.222-6.436-1.28-1.236-6.418 6.64v-15.396l11.049 10.996c0.333 0.331 0.784 0.517 1.253 0.517s0.92-0.186 1.253-0.517l11.333-11.271v15.556l-6.542-6.542-1.253 1.253 6.427 6.436zM4.72 7.111h22.284l-11.147 11.085-11.138-11.085z"></path>
</symbol>
<symbol id="location" viewBox="0 0 32 32">
<path d="M25 13c0-2.387-0.948-4.676-2.636-6.364s-3.977-2.636-6.364-2.636-4.676 0.948-6.364 2.636c-1.688 1.688-2.636 3.977-2.636 6.364 0 3.692 2.954 8.504 9 14.268 6.046-5.764 9-10.576 9-14.268zM16 30c-7.334-6.666-11-12.334-11-17 0-2.917 1.159-5.715 3.222-7.778s4.861-3.222 7.778-3.222c2.917 0 5.715 1.159 7.778 3.222s3.222 4.861 3.222 7.778c0 4.666-3.666 10.334-11 17z"></path>
<path d="M16 16c0.796 0 1.559-0.316 2.121-0.879s0.879-1.326 0.879-2.121c0-0.796-0.316-1.559-0.879-2.121s-1.326-0.879-2.121-0.879-1.559 0.316-2.121 0.879c-0.563 0.563-0.879 1.326-0.879 2.121s0.316 1.559 0.879 2.121c0.563 0.563 1.326 0.879 2.121 0.879zM16 18c-1.326 0-2.598-0.527-3.536-1.464s-1.464-2.209-1.464-3.536c0-1.326 0.527-2.598 1.464-3.536s2.209-1.464 3.536-1.464c1.326 0 2.598 0.527 3.536 1.464s1.464 2.209 1.464 3.536c0 1.326-0.527 2.598-1.464 3.536s-2.209 1.464-3.536 1.464z"></path>
</symbol>
<symbol id="instagram" viewBox="0 0 32 32">
<path d="M16 0c4.355 0 4.891 0.032 6.596 0.095 1.673 0.063 2.84 0.347 3.882 0.757 1.073 0.41 1.957 0.947 2.84 1.83s1.42 1.767 1.83 2.84c0.41 1.041 0.694 2.209 0.757 3.882 0.063 1.704 0.095 2.241 0.095 6.596s-0.032 4.891-0.095 6.596c-0.063 1.673-0.347 2.84-0.757 3.882-0.41 1.073-0.947 1.957-1.83 2.84s-1.767 1.42-2.84 1.83c-1.041 0.41-2.209 0.694-3.882 0.757-1.704 0.063-2.241 0.095-6.596 0.095s-4.892-0.032-6.596-0.095c-1.673-0.063-2.84-0.347-3.882-0.757-1.073-0.41-1.957-0.947-2.84-1.83s-1.42-1.767-1.83-2.84c-0.41-1.041-0.694-2.209-0.757-3.882-0.063-1.704-0.095-2.241-0.095-6.596s0.032-4.892 0.095-6.596c0.063-1.673 0.347-2.84 0.757-3.882 0.41-1.073 0.947-1.957 1.83-2.84s1.767-1.42 2.84-1.83c1.041-0.41 2.209-0.694 3.882-0.757 1.704-0.063 2.241-0.095 6.596-0.095zM16 2.083c-4.544 0-5.081 0.032-6.848 0.095-1.641 0.063-2.556 0.379-3.156 0.6-1.546 0.631-2.588 1.673-3.219 3.219-0.221 0.6-0.537 1.515-0.6 3.156-0.063 1.767-0.095 2.304-0.095 6.848s0.032 5.081 0.095 6.848c0.063 1.641 0.379 2.556 0.6 3.156 0.631 1.546 1.673 2.588 3.219 3.219 0.6 0.221 1.515 0.536 3.156 0.6 1.767 0.063 2.304 0.095 6.848 0.095s5.081-0.032 6.848-0.095c1.641-0.063 2.556-0.379 3.156-0.6 1.546-0.631 2.588-1.673 3.219-3.219 0.221-0.6 0.536-1.515 0.6-3.156 0.063-1.767 0.095-2.304 0.095-6.848s-0.032-5.081-0.095-6.848c-0.063-1.641-0.379-2.556-0.6-3.156-0.631-1.546-1.673-2.588-3.219-3.219-0.6-0.221-1.515-0.537-3.156-0.6-1.767-0.063-2.304-0.095-6.848-0.095zM16 22.406c3.535 0 6.406-2.872 6.406-6.406s-2.872-6.406-6.406-6.406c-3.535 0-6.406 2.872-6.406 6.406s2.872 6.406 6.406 6.406zM16 7.795c4.544 0 8.205 3.661 8.205 8.205s-3.661 8.205-8.205 8.205c-4.544 0-8.205-3.661-8.205-8.205s3.661-8.205 8.205-8.205zM26.477 7.479c0 1.073-0.884 1.893-1.957 1.893s-1.893-0.821-1.893-1.893 0.821-1.957 1.893-1.957c1.073 0 1.957 0.884 1.957 1.957z"></path>
</symbol>
<symbol id="tumblr" viewBox="0 0 32 32">
<path d="M16.509 1.999l-0 6.992h7.117v2.998h-7.086l-0.010 8.7c0 1.617 0.085 2.655 0.259 3.115 0.271 0.726 1.255 1.656 3.083 1.656 1.418 0 3.331-0.42 4.764-1.476v4.664c-1.195 0.561-2.307 0.788-3.276 1.014-0.97 0.225-2.020 0.339-3.146 0.339-1.254 0-4.875-0.034-6.361-3.761-0.268-0.671-0.402-1.645-0.402-2.92v-11.326h-4.088l0.020-3.065c1.353 0 5.413-0.809 5.413-6.93l3.711-0zM16.508 0l-3.711-0c-1.121 0-2.031 0.895-2.031 1.999 0 4.576-2.59 4.931-3.383 4.931-1.117 0-2.025 0.889-2.031 1.989l-0.020 3.065c-0.003 0.532 0.21 1.042 0.591 1.42 0.189 0.187 0.413 0.335 0.66 0.436s0.512 0.153 0.779 0.153h2.057v9.327c0 1.542 0.178 2.737 0.542 3.651 0.915 2.294 3.089 5.029 8.251 5.029 1.278 0 2.493-0.132 3.613-0.392l0.224-0.052c0.948-0.219 2.159-0.493 3.459-1.103 0.346-0.162 0.639-0.418 0.844-0.738s0.313-0.689 0.313-1.067v-4.664c0-0.371-0.105-0.735-0.303-1.050s-0.481-0.571-0.818-0.737c-0.287-0.142-0.599-0.212-0.909-0.212-0.439 0-0.865 0.14-1.216 0.398-1.209 0.891-2.755 1.077-3.547 1.077-0.812 0-1.114-0.29-1.181-0.367-0.035-0.157-0.131-0.743-0.131-2.405l0.007-6.701h5.058c1.121 0 2.031-0.895 2.031-1.999v-2.998c0-1.104-0.909-1.999-2.031-1.999h-5.087v-4.994c0-1.104-0.909-1.999-2.031-1.999v0z"></path>
</symbol>
<symbol id="twitter" viewBox="0 0 32 32">
<path d="M21.384 4.711c1.652 0 3.143 0.691 4.193 1.801 1.307-0.259 2.539-0.73 3.645-1.383-0.428 1.33-1.339 2.446-2.524 3.152 1.159-0.14 2.269-0.444 3.299-0.9-0.772 1.142-1.744 2.148-2.866 2.951 0.011 0.244 0.017 0.49 0.017 0.736 0 7.531-5.778 16.218-16.344 16.218-3.243 0-6.264-0.947-8.805-2.563 0.454 0.054 0.912 0.081 1.369 0.081 2.691 0 5.169-0.91 7.136-2.441-2.515-0.044-4.638-1.694-5.366-3.957 0.357 0.068 0.719 0.103 1.081 0.103 0.522 0 1.031-0.069 1.512-0.2-2.628-0.522-4.608-2.826-4.608-5.589v-0.073c0.775 0.427 1.66 0.684 2.603 0.714-1.542-1.023-2.556-2.766-2.556-4.743 0-1.045 0.284-2.025 0.778-2.864 2.832 3.447 7.065 5.716 11.84 5.955-0.099-0.416-0.149-0.856-0.149-1.298 0-3.148 2.572-5.7 5.746-5.7zM29.998 7.383v0zM21.384 2.667c-3.925 0-7.176 2.933-7.677 6.723-3.211-0.66-6.132-2.399-8.23-4.95-0.188-0.228-0.422-0.412-0.686-0.538s-0.552-0.191-0.844-0.191c-0.052 0-0.105 0.002-0.157 0.006-0.317 0.026-0.623 0.129-0.893 0.3s-0.497 0.405-0.661 0.684c-0.697 1.183-1.065 2.538-1.065 3.919 0 0.922 0.162 1.819 0.469 2.659-0.327 0.372-0.515 0.858-0.515 1.371v0.073c0 2.003 0.774 3.862 2.059 5.255-0.074 0.351-0.057 0.718 0.055 1.069 0.443 1.38 1.25 2.569 2.297 3.475-0.703 0.16-1.428 0.241-2.168 0.241-0.391 0-0.772-0.022-1.132-0.067-0.080-0.010-0.159-0.014-0.238-0.014-0.84 0-1.602 0.541-1.884 1.367-0.31 0.905 0.034 1.908 0.83 2.414 2.952 1.879 6.362 2.871 9.861 2.871 11.37 0 18.209-9.105 18.342-17.999 0.933-0.79 1.757-1.705 2.45-2.721 0.263-0.353 0.405-0.786 0.405-1.23 0-0.696-0.34-1.311-0.859-1.68 0.224-0.787-0.031-1.638-0.656-2.159-0.365-0.304-0.812-0.458-1.262-0.458-0.351-0-0.695 0.094-0.999 0.273-0.661 0.39-1.367 0.698-2.111 0.92-1.346-1.036-3.015-1.613-4.729-1.613z"></path>
</symbol>
<symbol id="youtube" viewBox="0 0 32 32">
<path d="M29.384 5.429c-0.866-0.614-3.279-1.429-13.392-1.429-10.837 0-12.445 0.936-12.961 1.242-2.746 1.624-3.007 8.814-3.031 10.272 0.033 1.925 0.349 8.332 3.029 9.916 0.515 0.305 2.114 1.236 12.963 1.236 10.119 0 12.53-0.811 13.392-1.422 2.341-1.657 2.61-7.365 2.616-9.755-0.006-1.921-0.211-8.355-2.616-10.060l-0-0zM28.217 23.648c-0.348 0.247-2.347 1.052-12.226 1.052-9.55 0-11.554-0.73-11.933-0.954-0.964-0.569-1.981-3.592-2.061-8.237 0.079-4.635 1.11-8.018 2.063-8.58 0.38-0.226 2.391-0.961 11.931-0.961 9.871 0 11.875 0.81 12.225 1.058 0.856 0.607 1.772 3.801 1.785 8.47-0.013 4.743-0.936 7.551-1.785 8.153h0zM22.506 14.56l-8.988-5.43c-0.152-0.090-0.325-0.139-0.502-0.141s-0.351 0.041-0.505 0.127c-0.154 0.086-0.283 0.21-0.372 0.361s-0.136 0.322-0.137 0.496v10.861c0 0.261 0.105 0.511 0.293 0.695s0.441 0.288 0.706 0.288c0.182 0 0.36-0.049 0.516-0.141l8.989-5.432c0.3-0.179 0.483-0.498 0.483-0.842s-0.183-0.665-0.482-0.842h-0zM14.001 19.092v-7.378l6.056 3.689-6.056 3.69z"></path>
</symbol>
</defs>
</svg>
