<svg width="432" height="577" viewBox="0 0 432 577" fill="none" xmlns="http://www.w3.org/2000/svg">
<path d="M257 283.5L137 185H17" stroke="#F3F3F3"/>
<circle cx="246" cy="249" r="4" fill="#BC1A1A" fill-opacity="0.8"/>
<circle cx="260" cy="286" r="4" fill="#BC1A1A" fill-opacity="0.8"/>
<circle cx="231" cy="313" r="4" fill="#BC1A1A" fill-opacity="0.8"/>
<circle cx="249" cy="465" r="4" fill="#BC1A1A" fill-opacity="0.8"/>
<path d="M246 467.5L132.5 571.5H20" stroke="#F3F3F3"/>
<path d="M227.5 314.5L112 386H0" stroke="#F3F3F3"/>
<circle cx="15" cy="185" r="3" fill="#BC1A1A" fill-opacity="0.8"/>
<circle cx="18" cy="572" r="3" fill="#BC1A1A" fill-opacity="0.8"/>
<circle cx="28" cy="22" r="3" fill="#BC1A1A" fill-opacity="0.8"/>
<path d="M245.5 245L179.5 22H31" stroke="#F3F3F3"/>
<path d="M32.824 17V5.8H34.008V17H32.824ZM39.8281 17V6.824H35.8921V5.8H44.9481V6.824H41.0121V17H39.8281ZM44.4851 17L49.6051 5.8H50.7731L55.8931 17H54.6451L49.9411 6.488H50.4211L45.7171 17H44.4851ZM46.5011 14.008L46.8531 13.048H53.3651L53.7171 14.008H46.5011ZM57.7459 17V5.8H58.9299V15.976H65.2019V17H57.7459ZM68.6523 17V12.84L68.9243 13.576L64.1723 5.8H65.4363L69.6123 12.632H68.9403L73.1163 5.8H74.3003L69.5483 13.576L69.8203 12.84V17H68.6523ZM82.5 17V6.824H78.564V5.8H87.62V6.824H83.684V17H82.5ZM94.2513 17.096C93.4086 17.096 92.6246 16.9573 91.8993 16.68C91.1846 16.392 90.5606 15.992 90.0273 15.48C89.5046 14.9573 89.0939 14.3547 88.7953 13.672C88.5073 12.9787 88.3633 12.2213 88.3633 11.4C88.3633 10.5787 88.5073 9.82667 88.7953 9.144C89.0939 8.45067 89.5046 7.848 90.0273 7.336C90.5606 6.81333 91.1846 6.41333 91.8993 6.136C92.6139 5.848 93.3979 5.704 94.2513 5.704C95.0939 5.704 95.8726 5.848 96.5873 6.136C97.3019 6.41333 97.9206 6.808 98.4433 7.32C98.9766 7.832 99.3873 8.43467 99.6753 9.128C99.9739 9.82133 100.123 10.5787 100.123 11.4C100.123 12.2213 99.9739 12.9787 99.6753 13.672C99.3873 14.3653 98.9766 14.968 98.4433 15.48C97.9206 15.992 97.3019 16.392 96.5873 16.68C95.8726 16.9573 95.0939 17.096 94.2513 17.096ZM94.2513 16.04C94.9233 16.04 95.5419 15.928 96.1073 15.704C96.6833 15.4693 97.1793 15.144 97.5953 14.728C98.0219 14.3013 98.3526 13.8107 98.5873 13.256C98.8219 12.6907 98.9393 12.072 98.9393 11.4C98.9393 10.728 98.8219 10.1147 98.5873 9.56C98.3526 8.99467 98.0219 8.504 97.5953 8.088C97.1793 7.66133 96.6833 7.336 96.1073 7.112C95.5419 6.87733 94.9233 6.76 94.2513 6.76C93.5793 6.76 92.9553 6.87733 92.3793 7.112C91.8033 7.336 91.3019 7.66133 90.8753 8.088C90.4593 8.504 90.1286 8.99467 89.8832 9.56C89.6486 10.1147 89.5312 10.728 89.5312 11.4C89.5312 12.0613 89.6486 12.6747 89.8832 13.24C90.1286 13.8053 90.4593 14.3013 90.8753 14.728C91.3019 15.144 91.8033 15.4693 92.3793 15.704C92.9553 15.928 93.5793 16.04 94.2513 16.04ZM102.777 17V5.8H103.753L108.873 14.536H108.361L113.433 5.8H114.409V17H113.273V7.576H113.545L108.873 15.576H108.313L103.609 7.576H103.913V17H102.777ZM116.266 17L121.386 5.8H122.554L127.674 17H126.426L121.722 6.488H122.202L117.498 17H116.266ZM118.282 14.008L118.634 13.048H125.146L125.498 14.008H118.282ZM131.141 17V6.824H127.205V5.8H136.261V6.824H132.325V17H131.141ZM142.892 17.096C142.049 17.096 141.265 16.9573 140.54 16.68C139.825 16.392 139.201 15.992 138.668 15.48C138.145 14.9573 137.735 14.3547 137.436 13.672C137.148 12.9787 137.004 12.2213 137.004 11.4C137.004 10.5787 137.148 9.82667 137.436 9.144C137.735 8.45067 138.145 7.848 138.668 7.336C139.201 6.81333 139.825 6.41333 140.54 6.136C141.255 5.848 142.039 5.704 142.892 5.704C143.735 5.704 144.513 5.848 145.228 6.136C145.943 6.41333 146.561 6.808 147.084 7.32C147.617 7.832 148.028 8.43467 148.316 9.128C148.615 9.82133 148.764 10.5787 148.764 11.4C148.764 12.2213 148.615 12.9787 148.316 13.672C148.028 14.3653 147.617 14.968 147.084 15.48C146.561 15.992 145.943 16.392 145.228 16.68C144.513 16.9573 143.735 17.096 142.892 17.096ZM142.892 16.04C143.564 16.04 144.183 15.928 144.748 15.704C145.324 15.4693 145.82 15.144 146.236 14.728C146.663 14.3013 146.993 13.8107 147.228 13.256C147.463 12.6907 147.58 12.072 147.58 11.4C147.58 10.728 147.463 10.1147 147.228 9.56C146.993 8.99467 146.663 8.504 146.236 8.088C145.82 7.66133 145.324 7.336 144.748 7.112C144.183 6.87733 143.564 6.76 142.892 6.76C142.22 6.76 141.596 6.87733 141.02 7.112C140.444 7.336 139.943 7.66133 139.516 8.088C139.1 8.504 138.769 8.99467 138.524 9.56C138.289 10.1147 138.172 10.728 138.172 11.4C138.172 12.0613 138.289 12.6747 138.524 13.24C138.769 13.8053 139.1 14.3013 139.516 14.728C139.943 15.144 140.444 15.4693 141.02 15.704C141.596 15.928 142.22 16.04 142.892 16.04ZM152.474 10.808H158.394V11.816H152.474V10.808ZM152.602 15.976H159.338V17H151.418V5.8H159.098V6.824H152.602V15.976ZM165.209 17.096C164.377 17.096 163.577 16.9627 162.809 16.696C162.052 16.4187 161.465 16.0667 161.049 15.64L161.513 14.728C161.908 15.112 162.436 15.4373 163.097 15.704C163.769 15.96 164.473 16.088 165.209 16.088C165.913 16.088 166.484 16.0027 166.921 15.832C167.369 15.6507 167.694 15.4107 167.897 15.112C168.11 14.8133 168.217 14.4827 168.217 14.12C168.217 13.6827 168.089 13.3307 167.833 13.064C167.588 12.7973 167.262 12.5893 166.857 12.44C166.452 12.28 166.004 12.1413 165.513 12.024C165.022 11.9067 164.532 11.784 164.041 11.656C163.55 11.5173 163.097 11.336 162.681 11.112C162.276 10.888 161.945 10.5947 161.689 10.232C161.444 9.85867 161.321 9.37333 161.321 8.776C161.321 8.22133 161.465 7.71467 161.753 7.256C162.052 6.78667 162.505 6.41333 163.113 6.136C163.721 5.848 164.5 5.704 165.449 5.704C166.078 5.704 166.702 5.79467 167.321 5.976C167.94 6.14667 168.473 6.38667 168.921 6.696L168.521 7.64C168.041 7.32 167.529 7.08533 166.985 6.936C166.452 6.78667 165.934 6.712 165.433 6.712C164.761 6.712 164.206 6.80267 163.769 6.984C163.332 7.16533 163.006 7.41067 162.793 7.72C162.59 8.01867 162.489 8.36 162.489 8.744C162.489 9.18133 162.612 9.53333 162.857 9.8C163.113 10.0667 163.444 10.2747 163.849 10.424C164.265 10.5733 164.718 10.7067 165.209 10.824C165.7 10.9413 166.185 11.0693 166.665 11.208C167.156 11.3467 167.604 11.528 168.009 11.752C168.425 11.9653 168.756 12.2533 169.001 12.616C169.257 12.9787 169.385 13.4533 169.385 14.04C169.385 14.584 169.236 15.0907 168.937 15.56C168.638 16.0187 168.18 16.392 167.561 16.68C166.953 16.9573 166.169 17.096 165.209 17.096Z" fill="#F3F3F3"/>
<path d="M20.88 174.224H26.8V175.248H20.88V174.224ZM21.008 180H19.824V168.8H27.504V169.824H21.008V180ZM29.949 180V168.8H34.141C35.0903 168.8 35.9063 168.955 36.589 169.264C37.2717 169.563 37.7943 170 38.157 170.576C38.5303 171.141 38.717 171.829 38.717 172.64C38.717 173.429 38.5303 174.112 38.157 174.688C37.7943 175.253 37.2717 175.691 36.589 176C35.9063 176.299 35.0903 176.448 34.141 176.448H30.605L31.133 175.904V180H29.949ZM37.597 180L34.717 175.936H35.997L38.893 180H37.597ZM31.133 176L30.605 175.44H34.109C35.229 175.44 36.077 175.195 36.653 174.704C37.2397 174.213 37.533 173.525 37.533 172.64C37.533 171.744 37.2397 171.051 36.653 170.56C36.077 170.069 35.229 169.824 34.109 169.824H30.605L31.133 169.264V176ZM42.5675 173.808H48.4875V174.816H42.5675V173.808ZM42.6955 178.976H49.4315V180H41.5115V168.8H49.1915V169.824H42.6955V178.976ZM55.3026 180.096C54.4706 180.096 53.6706 179.963 52.9026 179.696C52.1453 179.419 51.5586 179.067 51.1426 178.64L51.6066 177.728C52.0013 178.112 52.5293 178.437 53.1906 178.704C53.8626 178.96 54.5666 179.088 55.3026 179.088C56.0066 179.088 56.5773 179.003 57.0146 178.832C57.4626 178.651 57.788 178.411 57.9906 178.112C58.204 177.813 58.3106 177.483 58.3106 177.12C58.3106 176.683 58.1826 176.331 57.9266 176.064C57.6813 175.797 57.356 175.589 56.9506 175.44C56.5453 175.28 56.0973 175.141 55.6066 175.024C55.116 174.907 54.6253 174.784 54.1346 174.656C53.644 174.517 53.1906 174.336 52.7746 174.112C52.3693 173.888 52.0386 173.595 51.7826 173.232C51.5373 172.859 51.4146 172.373 51.4146 171.776C51.4146 171.221 51.5586 170.715 51.8466 170.256C52.1453 169.787 52.5986 169.413 53.2066 169.136C53.8146 168.848 54.5933 168.704 55.5426 168.704C56.172 168.704 56.796 168.795 57.4146 168.976C58.0333 169.147 58.5666 169.387 59.0146 169.696L58.6146 170.64C58.1346 170.32 57.6226 170.085 57.0786 169.936C56.5453 169.787 56.028 169.712 55.5266 169.712C54.8546 169.712 54.3 169.803 53.8626 169.984C53.4253 170.165 53.1 170.411 52.8866 170.72C52.684 171.019 52.5826 171.36 52.5826 171.744C52.5826 172.181 52.7053 172.533 52.9506 172.8C53.2066 173.067 53.5373 173.275 53.9426 173.424C54.3586 173.573 54.812 173.707 55.3026 173.824C55.7933 173.941 56.2786 174.069 56.7586 174.208C57.2493 174.347 57.6973 174.528 58.1026 174.752C58.5186 174.965 58.8493 175.253 59.0946 175.616C59.3506 175.979 59.4786 176.453 59.4786 177.04C59.4786 177.584 59.3293 178.091 59.0306 178.56C58.732 179.019 58.2733 179.392 57.6546 179.68C57.0466 179.957 56.2626 180.096 55.3026 180.096ZM70.2504 168.8H71.4184V180H70.2504V168.8ZM63.2424 180H62.0584V168.8H63.2424V180ZM70.3624 174.832H63.1144V173.792H70.3624V174.832ZM84.1735 180.096C83.3202 180.096 82.5308 179.957 81.8055 179.68C81.0908 179.392 80.4668 178.992 79.9335 178.48C79.4108 177.968 79.0002 177.365 78.7015 176.672C78.4135 175.979 78.2695 175.221 78.2695 174.4C78.2695 173.579 78.4135 172.821 78.7015 172.128C79.0002 171.435 79.4162 170.832 79.9495 170.32C80.4828 169.808 81.1068 169.413 81.8215 169.136C82.5468 168.848 83.3362 168.704 84.1895 168.704C85.0428 168.704 85.8215 168.837 86.5255 169.104C87.2402 169.371 87.8482 169.776 88.3495 170.32L87.6135 171.072C87.1442 170.603 86.6268 170.267 86.0615 170.064C85.4962 169.861 84.8882 169.76 84.2375 169.76C83.5442 169.76 82.9042 169.877 82.3175 170.112C81.7415 170.336 81.2348 170.661 80.7975 171.088C80.3708 171.504 80.0348 171.995 79.7895 172.56C79.5548 173.115 79.4375 173.728 79.4375 174.4C79.4375 175.061 79.5548 175.675 79.7895 176.24C80.0348 176.805 80.3708 177.301 80.7975 177.728C81.2348 178.144 81.7415 178.469 82.3175 178.704C82.9042 178.928 83.5388 179.04 84.2215 179.04C84.8615 179.04 85.4642 178.944 86.0295 178.752C86.6055 178.56 87.1335 178.235 87.6135 177.776L88.2855 178.672C87.7522 179.141 87.1282 179.499 86.4135 179.744C85.6988 179.979 84.9522 180.096 84.1735 180.096ZM87.1495 178.528V174.4H88.2855V178.672L87.1495 178.528ZM89.8445 180L94.9645 168.8H96.1325L101.253 180H100.005L95.3005 169.488H95.7805L91.0765 180H89.8445ZM91.8605 177.008L92.2125 176.048H98.7245L99.0765 177.008H91.8605ZM103.105 180V168.8H107.297C108.247 168.8 109.063 168.955 109.745 169.264C110.428 169.563 110.951 170 111.313 170.576C111.687 171.141 111.873 171.829 111.873 172.64C111.873 173.429 111.687 174.112 111.313 174.688C110.951 175.253 110.428 175.691 109.745 176C109.063 176.299 108.247 176.448 107.297 176.448H103.761L104.289 175.904V180H103.105ZM110.753 180L107.873 175.936H109.153L112.049 180H110.753ZM104.289 176L103.761 175.44H107.265C108.385 175.44 109.233 175.195 109.809 174.704C110.396 174.213 110.689 173.525 110.689 172.64C110.689 171.744 110.396 171.051 109.809 170.56C109.233 170.069 108.385 169.824 107.265 169.824H103.761L104.289 169.264V176ZM114.668 180V168.8H115.852V178.976H122.124V180H114.668ZM124.09 180V168.8H125.274V180H124.09ZM133.782 180.096C132.939 180.096 132.16 179.957 131.446 179.68C130.731 179.392 130.112 178.992 129.59 178.48C129.067 177.968 128.656 177.365 128.358 176.672C128.07 175.979 127.926 175.221 127.926 174.4C127.926 173.579 128.07 172.821 128.358 172.128C128.656 171.435 129.067 170.832 129.59 170.32C130.123 169.808 130.747 169.413 131.462 169.136C132.176 168.848 132.955 168.704 133.798 168.704C134.608 168.704 135.371 168.843 136.086 169.12C136.8 169.387 137.403 169.792 137.894 170.336L137.142 171.088C136.683 170.619 136.176 170.283 135.622 170.08C135.067 169.867 134.47 169.76 133.83 169.76C133.158 169.76 132.534 169.877 131.958 170.112C131.382 170.336 130.88 170.661 130.454 171.088C130.027 171.504 129.691 171.995 129.446 172.56C129.211 173.115 129.094 173.728 129.094 174.4C129.094 175.072 129.211 175.691 129.446 176.256C129.691 176.811 130.027 177.301 130.454 177.728C130.88 178.144 131.382 178.469 131.958 178.704C132.534 178.928 133.158 179.04 133.83 179.04C134.47 179.04 135.067 178.933 135.622 178.72C136.176 178.507 136.683 178.165 137.142 177.696L137.894 178.448C137.403 178.992 136.8 179.403 136.086 179.68C135.371 179.957 134.603 180.096 133.782 180.096Z" fill="#F3F3F3"/>
<path d="M4.368 381L0.592 369.8H1.808L5.344 380.344H4.736L8.384 369.8H9.472L13.072 380.344H12.496L16.064 369.8H17.2L13.424 381H12.176L8.736 371H9.056L5.6 381H4.368ZM27.5629 369.8H28.7309V381H27.5629V369.8ZM20.5549 381H19.3709V369.8H20.5549V381ZM27.6749 375.832H20.4269V374.792H27.6749V375.832ZM32.3865 381V369.8H33.5705V381H32.3865ZM39.3906 381V370.824H35.4546V369.8H44.5106V370.824H40.5746V381H39.3906ZM47.4581 374.808H53.3781V375.816H47.4581V374.808ZM47.5861 379.976H54.3221V381H46.4021V369.8H54.0821V370.824H47.5861V379.976ZM63.8368 381L60.0608 369.8H61.2768L64.8128 380.344H64.2048L67.8528 369.8H68.9408L72.5408 380.344H71.9648L75.5328 369.8H76.6688L72.8928 381H71.6448L68.2048 371H68.5248L65.0688 381H63.8368ZM78.8396 381V369.8H80.0236V381H78.8396ZM83.6678 381V369.8H84.6438L92.3718 379.528H91.8598V369.8H93.0278V381H92.0518L84.3398 371.272H84.8518V381H83.6678ZM97.7394 374.808H103.659V375.816H97.7394V374.808ZM97.8674 379.976H104.603V381H96.6834V369.8H104.363V370.824H97.8674V379.976Z" fill="#F3F3F3"/>
<path d="M23.88 560.224H29.8V561.248H23.88V560.224ZM24.008 566H22.824V554.8H30.504V555.824H24.008V566ZM32.949 566V554.8H37.141C38.0903 554.8 38.9063 554.955 39.589 555.264C40.2717 555.563 40.7943 556 41.157 556.576C41.5303 557.141 41.717 557.829 41.717 558.64C41.717 559.429 41.5303 560.112 41.157 560.688C40.7943 561.253 40.2717 561.691 39.589 562C38.9063 562.299 38.0903 562.448 37.141 562.448H33.605L34.133 561.904V566H32.949ZM40.597 566L37.717 561.936H38.997L41.893 566H40.597ZM34.133 562L33.605 561.44H37.109C38.229 561.44 39.077 561.195 39.653 560.704C40.2397 560.213 40.533 559.525 40.533 558.64C40.533 557.744 40.2397 557.051 39.653 556.56C39.077 556.069 38.229 555.824 37.109 555.824H33.605L34.133 555.264V562ZM45.5675 559.808H51.4875V560.816H45.5675V559.808ZM45.6955 564.976H52.4315V566H44.5115V554.8H52.1915V555.824H45.6955V564.976ZM58.3026 566.096C57.4706 566.096 56.6706 565.963 55.9026 565.696C55.1453 565.419 54.5586 565.067 54.1426 564.64L54.6066 563.728C55.0013 564.112 55.5293 564.437 56.1906 564.704C56.8626 564.96 57.5666 565.088 58.3026 565.088C59.0066 565.088 59.5773 565.003 60.0146 564.832C60.4626 564.651 60.788 564.411 60.9906 564.112C61.204 563.813 61.3106 563.483 61.3106 563.12C61.3106 562.683 61.1826 562.331 60.9266 562.064C60.6813 561.797 60.356 561.589 59.9506 561.44C59.5453 561.28 59.0973 561.141 58.6066 561.024C58.116 560.907 57.6253 560.784 57.1346 560.656C56.644 560.517 56.1906 560.336 55.7746 560.112C55.3693 559.888 55.0386 559.595 54.7826 559.232C54.5373 558.859 54.4146 558.373 54.4146 557.776C54.4146 557.221 54.5586 556.715 54.8466 556.256C55.1453 555.787 55.5986 555.413 56.2066 555.136C56.8146 554.848 57.5933 554.704 58.5426 554.704C59.172 554.704 59.796 554.795 60.4146 554.976C61.0333 555.147 61.5666 555.387 62.0146 555.696L61.6146 556.64C61.1346 556.32 60.6226 556.085 60.0786 555.936C59.5453 555.787 59.028 555.712 58.5266 555.712C57.8546 555.712 57.3 555.803 56.8626 555.984C56.4253 556.165 56.1 556.411 55.8866 556.72C55.684 557.019 55.5826 557.36 55.5826 557.744C55.5826 558.181 55.7053 558.533 55.9506 558.8C56.2066 559.067 56.5373 559.275 56.9426 559.424C57.3586 559.573 57.812 559.707 58.3026 559.824C58.7933 559.941 59.2786 560.069 59.7586 560.208C60.2493 560.347 60.6973 560.528 61.1026 560.752C61.5186 560.965 61.8493 561.253 62.0946 561.616C62.3506 561.979 62.4786 562.453 62.4786 563.04C62.4786 563.584 62.3293 564.091 62.0306 564.56C61.732 565.019 61.2733 565.392 60.6546 565.68C60.0466 565.957 59.2626 566.096 58.3026 566.096ZM73.2504 554.8H74.4184V566H73.2504V554.8ZM66.2424 566H65.0584V554.8H66.2424V566ZM73.3624 560.832H66.1144V559.792H73.3624V560.832ZM82.2615 566V554.8H87.0935C88.3415 554.8 89.3068 555.051 89.9895 555.552C90.6828 556.053 91.0295 556.763 91.0295 557.68C91.0295 558.288 90.8855 558.8 90.5975 559.216C90.3202 559.632 89.9362 559.947 89.4455 560.16C88.9655 560.373 88.4375 560.48 87.8615 560.48L88.1335 560.096C88.8482 560.096 89.4615 560.208 89.9735 560.432C90.4962 560.645 90.9015 560.971 91.1895 561.408C91.4775 561.835 91.6215 562.368 91.6215 563.008C91.6215 563.957 91.2695 564.693 90.5655 565.216C89.8722 565.739 88.8215 566 87.4135 566H82.2615ZM83.4455 565.024H87.3975C88.3788 565.024 89.1308 564.859 89.6535 564.528C90.1762 564.187 90.4375 563.648 90.4375 562.912C90.4375 562.187 90.1762 561.659 89.6535 561.328C89.1308 560.987 88.3788 560.816 87.3975 560.816H83.3175V559.84H87.0135C87.9095 559.84 88.6028 559.669 89.0935 559.328C89.5948 558.987 89.8455 558.48 89.8455 557.808C89.8455 557.125 89.5948 556.619 89.0935 556.288C88.6028 555.947 87.9095 555.776 87.0135 555.776H83.4455V565.024ZM92.532 566L97.652 554.8H98.82L103.94 566H102.692L97.988 555.488H98.468L93.764 566H92.532ZM94.548 563.008L94.9 562.048H101.412L101.764 563.008H94.548ZM108.881 566.096C108.049 566.096 107.249 565.963 106.481 565.696C105.723 565.419 105.137 565.067 104.721 564.64L105.185 563.728C105.579 564.112 106.107 564.437 106.769 564.704C107.441 564.96 108.145 565.088 108.881 565.088C109.585 565.088 110.155 565.003 110.593 564.832C111.041 564.651 111.366 564.411 111.569 564.112C111.782 563.813 111.889 563.483 111.889 563.12C111.889 562.683 111.761 562.331 111.505 562.064C111.259 561.797 110.934 561.589 110.529 561.44C110.123 561.28 109.675 561.141 109.185 561.024C108.694 560.907 108.203 560.784 107.713 560.656C107.222 560.517 106.769 560.336 106.353 560.112C105.947 559.888 105.617 559.595 105.361 559.232C105.115 558.859 104.993 558.373 104.993 557.776C104.993 557.221 105.137 556.715 105.425 556.256C105.723 555.787 106.177 555.413 106.785 555.136C107.393 554.848 108.171 554.704 109.121 554.704C109.75 554.704 110.374 554.795 110.993 554.976C111.611 555.147 112.145 555.387 112.593 555.696L112.193 556.64C111.713 556.32 111.201 556.085 110.657 555.936C110.123 555.787 109.606 555.712 109.105 555.712C108.433 555.712 107.878 555.803 107.441 555.984C107.003 556.165 106.678 556.411 106.465 556.72C106.262 557.019 106.161 557.36 106.161 557.744C106.161 558.181 106.283 558.533 106.529 558.8C106.785 559.067 107.115 559.275 107.521 559.424C107.937 559.573 108.39 559.707 108.881 559.824C109.371 559.941 109.857 560.069 110.337 560.208C110.827 560.347 111.275 560.528 111.681 560.752C112.097 560.965 112.427 561.253 112.673 561.616C112.929 561.979 113.057 562.453 113.057 563.04C113.057 563.584 112.907 564.091 112.609 564.56C112.31 565.019 111.851 565.392 111.233 565.68C110.625 565.957 109.841 566.096 108.881 566.096ZM115.637 566V554.8H116.821V566H115.637ZM120.465 566V554.8H121.649V564.976H127.921V566H120.465Z" fill="#F3F3F3"/>
</svg>
